<svg xmlns="http://www.w3.org/2000/svg" xmlns:xlink="http://www.w3.org/1999/xlink" viewBox="0 0 1541.18 628.91"><defs><style>.cls-1{fill:url(#linear-gradient);}.cls-2{fill:url(#linear-gradient-2);}</style><linearGradient id="linear-gradient" x1="1038.31" y1="440.25" x2="1541.18" y2="440.25" gradientUnits="userSpaceOnUse"><stop offset="0" stop-color="#ff2a6b"/><stop offset="0.25" stop-color="#ff3166"/><stop offset="0.62" stop-color="#ff4458"/><stop offset="1" stop-color="#ff5f45"/></linearGradient><linearGradient id="linear-gradient-2" x1="995.82" y1="328.76" x2="1581.34" y2="105.58" gradientUnits="userSpaceOnUse"><stop offset="0" stop-color="#ff5f45"/><stop offset="0.3" stop-color="#ff4a54"/><stop offset="0.73" stop-color="#ff3365"/><stop offset="1" stop-color="#ff2a6b"/></linearGradient></defs><title>كيميا copy</title><g id="Layer_3" data-name="Layer 3"><path class="cls-1" d="M1478.32,336.8q-5.21-5.91-10.78-11.48a250.65,250.65,0,0,0-177.8-73.65H1164V377.39h125.71a125.64,125.64,0,0,1,125.72,125.72H1038.31V628.83h502.87V503.11A250.44,250.44,0,0,0,1478.32,336.8Z"/><path class="cls-2" d="M1541.18.24V126h-62.86A314,314,0,0,0,1164,440.25H1038.31A438.57,438.57,0,0,1,1164,132.31q1.58-1.6,3.16-3.19A438.59,438.59,0,0,1,1478.32.24Z"/><path d="M377.63,251.43V441.56l-.48,12.23A188.8,188.8,0,0,1,188.81,629.07H0V0H126.2V503.35h62.86a62.85,62.85,0,0,0,62.85-62.86V251.43Z"/><path d="M1006.22,251.43V470.6c0,1.19,0,2.38,0,3.57s-.06,2.14-.11,3.2c0,.25,0,.5,0,.74,0,.89-.09,1.78-.14,2.67,0,.24,0,.49,0,.74-.06.83-.12,1.66-.19,2.48,0,.27,0,.54-.07.8s-.05.6-.08.89c-.08.84-.16,1.68-.26,2.51v0c-.12,1-.24,2.07-.38,3.1-.18,1.43-.39,2.85-.62,4.26-.13.86-.27,1.73-.43,2.59,0,.24-.08.49-.13.73-.15.89-.32,1.78-.5,2.67,0,.17-.07.34-.1.51-.16.79-.33,1.59-.5,2.37-.09.43-.19.87-.29,1.3-.21,1-.44,1.92-.68,2.87s-.54,2.16-.83,3.23l-.06.23c-.24.89-.49,1.78-.75,2.66-.1.37-.21.73-.32,1.1-.25.85-.51,1.69-.77,2.53l-.06.18c-.3,1-.62,1.91-.94,2.86-.06.19-.13.38-.19.57-.33,1-.68,1.93-1,2.89,0,.06,0,.13-.07.2-.36,1-.73,2-1.12,3s-.78,2-1.18,3c-.06.14-.12.27-.17.4-.37.89-.75,1.77-1.13,2.64l-.22.49q-1,2.4-2.19,4.75l-.63,1.3c-.35.72-.71,1.43-1.08,2.14-.14.28-.28.56-.43.83-.44.86-.9,1.72-1.36,2.57,0,.05-.05.1-.09.16-.43.8-.87,1.59-1.33,2.38-.68,1.22-1.38,2.42-2.1,3.61-.54.89-1.08,1.77-1.63,2.64s-1.14,1.79-1.72,2.68l-.08.12c-.6.91-1.21,1.82-1.83,2.71s-1.36,1.95-2,2.9-1.24,1.7-1.87,2.53-1.13,1.5-1.72,2.24c-.22.3-.46.59-.69.88-.55.7-1.12,1.4-1.69,2.1s-1.33,1.61-2,2.4l-.69.81c-.53.62-1.07,1.22-1.61,1.83-.72.81-1.46,1.62-2.2,2.42l0,0c-.71.76-1.44,1.53-2.16,2.28l-.43.44-2,2c-.67.66-1.34,1.32-2,2l-.37.35c-1.53,1.45-3.1,2.87-4.69,4.26-.19.18-.38.34-.57.5-.71.62-1.43,1.23-2.15,1.83s-1.48,1.23-2.23,1.83l-.73.58c-.7.56-1.41,1.11-2.12,1.66-.91.71-1.83,1.4-2.75,2.07s-1.79,1.3-2.7,1.94-1.61,1.12-2.43,1.67l-.47.32c-.87.58-1.74,1.16-2.62,1.72s-1.45.93-2.18,1.37l-1.16.71-.16.1-2,1.2-.38.22q-2.77,1.62-5.63,3.13-1.47.78-3,1.53c-.77.39-1.54.77-2.32,1.14l-.69.33c-1,.48-2,1-3,1.41-.86.39-1.73.77-2.6,1.14-.31.14-.61.27-.92.39-.89.38-1.78.74-2.67,1.1s-2.09.82-3.15,1.22-2,.73-3,1.08l-.21.07c-.88.31-1.75.61-2.63.89s-2,.66-3,1l-1.24.37-.31.1-2.51.73h0l-3.11.83-.17,0c-1,.26-2,.51-3,.75l-.6.14-2.8.62-.24,0-.18,0c-.6.12-1.2.25-1.81.36-1.63.33-3.26.62-4.9.89-.58.09-1.15.19-1.73.27-1.16.18-2.33.35-3.5.5-.65.08-1.31.17-2,.24l-1.51.17c-1.54.17-3.08.31-4.64.43l-2.07.15c-.76,0-1.52.1-2.29.13-1.31.07-2.63.12-3.95.16s-2.8.05-4.2.05q-3.16,0-6.31-.13l-1.84-.08c-2.71-.13-5.39-.34-8.05-.61l-2-.21-2-.24-2-.27-2-.29-2-.31-1.95-.34-2-.36-1.94-.38-1.93-.41L812,625q-2.88-.66-5.71-1.43l-1.88-.52-1.88-.55q-2.81-.82-5.57-1.77t-5.65-2q-1.65-.63-3.27-1.29l-2-.82c-.58-.24-1.15-.48-1.73-.74h0c-.91-.4-1.82-.8-2.72-1.22s-1.69-.78-2.52-1.19l-.7-.34c-.92-.45-1.84-.9-2.75-1.37l-.81-.42-2-1.06-1-.57-2.26-1.27-.19-.1a218.78,218.78,0,0,0,69.65-106.16,32.55,32.55,0,0,0,6.3,1.1l.61,0c.63,0,1.27.06,1.91.06A32.75,32.75,0,0,0,880.5,470.6V251.43Z"/><path d="M779.93,327.34A188.56,188.56,0,0,0,440.5,439.52l.24,15,.24,16.91q0,.66,0,1.32c0,.43,0,.87-.08,1.3s-.07.83-.12,1.24a32.45,32.45,0,0,1-.71,3.86c-.1.39-.2.79-.32,1.18s-.19.66-.31,1c-.23.73-.49,1.44-.78,2.14-.13.34-.27.67-.43,1,0,.06-.05.11-.07.17l-.3.63a31.25,31.25,0,0,1-2.74,4.64l-.45.62c-.15.21-.31.41-.47.61l-.39.49c-.68.82-1.39,1.62-2.15,2.37l-.41.4-.7.66-.72.63c-.34.29-.68.58-1,.85s-.59.46-.88.67-.65.47-1,.69-.7.47-1.07.69l-.88.53-.18.1c-.36.2-.72.4-1.09.59l-.09.05c-.33.17-.68.33-1,.49l-1.09.49-.05,0c-.38.16-.77.32-1.16.46s-.78.29-1.18.42l-.09,0-1.1.34-.1,0-1.11.29c-.68.17-1.38.32-2.08.44l-.69.11-.8.11-.5.06-.76.08-.35,0q-.57,0-1.14.06c-.44,0-.87,0-1.31,0s-.83,0-1.24,0h-.4c-.41,0-.83-.05-1.24-.09h-.13l-.86-.1a29.16,29.16,0,0,1-3.66-.66,219.7,219.7,0,0,1-23.9,53.8,222,222,0,0,1-32.14,40.67q-6.18,6.18-12.83,11.87c2.15,1.2,4.34,2.36,6.56,3.46,1.14.56,2.28,1.11,3.44,1.65.94.45,1.9.88,2.86,1.3l.91.4.91.39c.73.32,1.45.62,2.18.92,1.23.5,2.46,1,3.71,1.46s2.4.9,3.61,1.32c1.52.54,3.05,1.06,4.6,1.54.87.28,1.74.55,2.62.81l.12,0,2.73.78c1,.27,1.92.52,2.88.77q2.82.74,5.69,1.35l1.66.36.49.1c2.74.55,5.51,1,8.31,1.45l1.32.19,2.92.38,1,.11c.85.1,1.71.19,2.57.27s1.54.15,2.32.21c1.11.09,2.22.17,3.34.24l2.14.11c1.07.05,2.15.09,3.23.12,1.43,0,2.86.06,4.3.06,1,0,1.91,0,2.86,0s2.15,0,3.21-.09l1,0,2.66-.14.34,0c1-.06,1.92-.13,2.87-.21l1.83-.16c.61,0,1.22-.11,1.82-.18l1.82-.2,2.45-.31c.56-.07,1.12-.14,1.68-.23,2.22-.32,4.43-.68,6.63-1.1l1.77-.34c1.18-.23,2.35-.48,3.52-.75l1.75-.4L447,624c.88-.21,1.74-.44,2.6-.67l2.45-.67q7-2,13.77-4.62c1-.4,2.06-.81,3.08-1.23s2-.85,3.05-1.29c.54-.24,1.07-.47,1.6-.72l1.38-.63c1.2-.55,2.39-1.11,3.56-1.7l1.33-.66c.57-.28,1.12-.57,1.68-.87q1.23-.63,2.43-1.29c.42-.22.83-.45,1.24-.68.7-.38,1.38-.77,2.08-1.17l.49-.28.06,0h0c1.1-.63,2.18-1.28,3.25-1.94.89-.54,1.76-1.09,2.64-1.65l0,0,2.38-1.57c.7-.46,1.39-.92,2.07-1.4l1.26-.88.56-.39,2-1.42c1-.76,2.07-1.54,3.09-2.33s1.82-1.42,2.72-2.15,1.79-1.46,2.67-2.2,1.76-1.51,2.63-2.28A188.61,188.61,0,0,0,815,471.94a275.61,275.61,0,0,0,2.61-31.45C819,398.05,803.61,358.86,779.93,327.34Zm-88,113.15a62.82,62.82,0,1,1-62.82-62.82A62.83,62.83,0,0,1,691.89,440.49Z"/></g></svg>