<svg xmlns="http://www.w3.org/2000/svg" xmlns:xlink="http://www.w3.org/1999/xlink" viewBox="0 0 785.98 785.98"><defs><style>.cls-1{fill:url(#linear-gradient);}.cls-2{fill:url(#linear-gradient-2);}</style><linearGradient id="linear-gradient" x1="78.6" y1="550.18" x2="707.38" y2="550.18" gradientUnits="userSpaceOnUse"><stop offset="0" stop-color="#ff2a6b"/><stop offset="0.25" stop-color="#ff3166"/><stop offset="0.62" stop-color="#ff4458"/><stop offset="1" stop-color="#ff5f45"/></linearGradient><linearGradient id="linear-gradient-2" x1="25.46" y1="410.77" x2="757.59" y2="131.72" gradientUnits="userSpaceOnUse"><stop offset="0" stop-color="#ff5f45"/><stop offset="0.3" stop-color="#ff4a54"/><stop offset="0.73" stop-color="#ff3365"/><stop offset="1" stop-color="#ff2a6b"/></linearGradient></defs><title>Artboard 6</title><g id="Layer_3" data-name="Layer 3"><path class="cls-1" d="M628.78,420.83q-6.51-7.4-13.48-14.35A313.39,313.39,0,0,0,393,314.38H235.8v157.2H393a157.1,157.1,0,0,1,157.2,157.2H78.6V786H707.38V628.78A313.14,313.14,0,0,0,628.78,420.83Z"/><path class="cls-2" d="M707.38,0V157.2h-78.6a392.54,392.54,0,0,0-393,393H78.6a548.34,548.34,0,0,1,157.2-385c1.31-1.34,2.62-2.66,3.95-4C339.3,61.58,476.85,0,628.78,0Z"/></g></svg>