<svg xmlns="http://www.w3.org/2000/svg" xmlns:xlink="http://www.w3.org/1999/xlink" viewBox="0 0 1862.14 628.91"><defs><style>.cls-1{fill:url(#linear-gradient);}.cls-2{fill:url(#linear-gradient-2);}</style><linearGradient id="linear-gradient" y1="440.17" x2="502.87" y2="440.17" gradientUnits="userSpaceOnUse"><stop offset="0" stop-color="#ff2a6b"/><stop offset="0.25" stop-color="#ff3166"/><stop offset="0.62" stop-color="#ff4458"/><stop offset="1" stop-color="#ff5f45"/></linearGradient><linearGradient id="linear-gradient-2" x1="-42.5" y1="328.68" x2="543.02" y2="105.5" gradientUnits="userSpaceOnUse"><stop offset="0" stop-color="#ff5f45"/><stop offset="0.3" stop-color="#ff4a54"/><stop offset="0.73" stop-color="#ff3365"/><stop offset="1" stop-color="#ff2a6b"/></linearGradient></defs><title>كيميا copy 2</title><g id="Layer_3" data-name="Layer 3"><path class="cls-1" d="M440,336.72q-5.2-5.91-10.78-11.48a250.65,250.65,0,0,0-177.8-73.65H125.72V377.31H251.43A125.64,125.64,0,0,1,377.15,503H0V628.75H502.87V503A250.44,250.44,0,0,0,440,336.72Z"/><path class="cls-2" d="M502.87.16V125.88H440A314,314,0,0,0,125.72,440.17H0A438.57,438.57,0,0,1,125.72,132.23q1.57-1.6,3.16-3.19A438.59,438.59,0,0,1,440,.16Z"/><rect x="542.1" y="0.32" width="125.72" height="125.72" rx="62.86"/><rect x="1296.41" y="251.43" width="125.72" height="377.15"/><rect x="1296.41" width="125.72" height="125.72" rx="62.86"/><path d="M1862.14,440.33V628.91H1736.42V440.33a62.86,62.86,0,0,0-62.86-62.86H1610.7V440l125.72.32V566.05l-125.72-.32v63.18H1485V251.75h188.58C1777.71,251.75,1862.14,336.18,1862.14,440.33Z"/><path d="M1233.55,377.15V628.58H1107.83V377.15H1045V628.59H919.25V377.15H856.39V628.59H687A157.27,157.27,0,0,1,542.1,471.8v-220H667.82V440.49h.24V471.8a31.31,31.31,0,0,0,31.31,31.31h31.31V440.49h0V251.43h377.16a125.71,125.71,0,0,1,125.72,125.72Z"/></g></svg>